<svg width="80" height="24" viewBox="0 0 80 24" fill="none" xmlns="http://www.w3.org/2000/svg">
<path d="M62.4258 17.5915H55.3814L62.4258 10.5461H57.1541L48.3525 19.3477V22.8224H62.4268L62.4258 17.5915Z" fill="white"/>
<path d="M79.9994 17.5712V14.0616H76.4849V0L71.2133 5.27165V21.0653H69.4561V22.8225H78.2412V21.0653H76.484V17.5741L79.9994 17.5712Z" fill="white"/>
<path d="M65.9431 14.0616V10.5424L62.4287 14.0616V17.5761H69.4576V14.0616H65.9431Z" fill="white"/>
<path d="M54.5214 7.26549L51.8855 2.69983C49.7103 3.95405 48.3704 6.27424 48.3711 8.78512H53.6427C53.6429 8.15794 53.9779 7.57856 54.5214 7.26549Z" fill="white"/>
<path d="M55.4012 7.02887L58.9146 0.942611C56.7406 -0.314204 54.0608 -0.314204 51.8867 0.942611L55.4012 7.02887Z" fill="#00FFBA"/>
<path d="M58.9122 2.69983L56.2764 7.26549C56.8203 7.57863 57.1557 8.15841 57.1559 8.78609H62.4266C62.4275 6.27492 61.0875 3.95437 58.9122 2.69983" fill="white"/>
<path d="M4.66943 18.4255H13.0734V22.8234H0V1.73584H4.66943V18.4255Z" fill="white"/>
<path fill-rule="evenodd" clip-rule="evenodd" d="M20.2175 8.45349C16.6051 8.45349 13.623 10.9846 13.623 15.8645C13.623 20.7443 16.6022 23.2744 20.2175 23.2744C22.0529 23.3996 23.8057 22.494 24.7657 20.9247H24.8258V22.8225H29.375V8.9054H24.8258V10.8032H24.7657C23.8057 9.23392 22.0529 8.32838 20.2175 8.45349ZM21.4753 12.7012C23.2392 12.6876 24.6832 14.1006 24.7078 15.8645C24.754 16.7352 24.4304 17.5849 23.8167 18.2043C23.203 18.8237 22.3563 19.1552 21.4852 19.1171C19.7213 19.1089 18.2948 17.6781 18.2921 15.9141C18.2894 14.1501 19.7113 12.7149 21.4753 12.7012Z" fill="white"/>
<path fill-rule="evenodd" clip-rule="evenodd" d="M35.515 20.9246H35.5761H35.578C36.5301 22.4869 38.2704 23.392 40.0962 23.2744C43.7086 23.2744 46.7207 20.7442 46.7207 15.8644C46.7207 10.9845 43.7086 8.45342 40.0942 8.45342C38.2685 8.33581 36.5282 9.24087 35.5761 10.8032H35.515V1.73682H30.9668V22.8225H35.515V20.9246ZM38.8222 12.7011C40.586 12.6877 42.0298 14.1007 42.0543 15.8644C42.1006 16.7353 41.7769 17.5852 41.163 18.2046C40.5491 18.8241 39.7021 19.1554 38.8308 19.117C37.067 19.1083 35.6411 17.6772 35.6387 15.9134C35.6363 14.1495 37.0584 12.7146 38.8222 12.7011Z" fill="white"/>
</svg>
